<svg width="24" height="24" viewBox="0 0 24 24" fill="none" xmlns="http://www.w3.org/2000/svg">
<path d="M19.87 17.412C20.422 17.7027 20.877 17.634 21.235 17.206C21.5923 16.778 21.6383 16.3067 21.373 15.792L19.462 12.208L17.796 16.331L19.87 17.412ZM14.562 16.5H16.646L19.085 10.473C19.2377 10.0963 19.2637 9.79167 19.163 9.559C19.0623 9.32633 18.8723 9.153 18.593 9.039L16.593 8.239C16.2883 8.11167 15.995 8.096 15.713 8.192C15.431 8.288 15.273 8.501 15.239 8.831L14.562 16.5ZM7.354 16.5H9.439L8.762 8.754C8.72867 8.494 8.577 8.31133 8.307 8.206C8.037 8.10067 7.737 8.11167 7.407 8.239L5.407 9.039C5.107 9.16567 4.93134 9.36467 4.88 9.636C4.82867 9.90733 4.866 10.212 4.992 10.55L7.354 16.5ZM4.131 17.412L6.204 16.331L4.577 12.208L2.627 15.869C2.33634 16.3957 2.38567 16.851 2.775 17.235C3.16434 17.619 3.61634 17.678 4.131 17.412ZM10.439 16.5H13.562L14.35 7.589C14.3833 7.285 14.3073 7.02733 14.122 6.816C13.9367 6.60533 13.6793 6.5 13.35 6.5H10.65C10.4013 6.5 10.165 6.596 9.941 6.788C9.71767 6.97933 9.62067 7.22033 9.65 7.511L10.439 16.5ZM3.529 18.539C2.949 18.539 2.46567 18.3403 2.079 17.943C1.69234 17.5457 1.49934 17.0657 1.5 16.503C1.5 16.3163 1.52267 16.1337 1.568 15.955C1.61334 15.7763 1.67767 15.6017 1.761 15.431L4.077 11C3.857 10.4233 3.83033 9.85133 3.997 9.284C4.16367 8.71667 4.512 8.32567 5.042 8.111L7.042 7.311C7.32667 7.18967 7.618 7.12833 7.916 7.127C8.21334 7.12567 8.47867 7.214 8.712 7.392C8.76534 6.87 8.975 6.42433 9.341 6.055C9.70633 5.685 10.1527 5.5 10.68 5.5H13.35C13.87 5.5 14.3163 5.67533 14.689 6.026C15.0617 6.37667 15.2873 6.80667 15.366 7.316C15.5607 7.12867 15.8067 7.05367 16.104 7.091C16.4013 7.12833 16.686 7.20167 16.958 7.311L18.958 8.111C19.4967 8.32633 19.8607 8.71433 20.05 9.275C20.2393 9.83567 20.2097 10.394 19.961 10.95L22.277 15.38C22.3517 15.5253 22.414 15.671 22.464 15.817C22.514 15.963 22.539 16.115 22.539 16.273C22.539 16.895 22.323 17.428 21.891 17.872C21.4597 18.3167 20.936 18.539 20.32 18.539C20.1693 18.539 20.026 18.521 19.89 18.485C19.7533 18.4503 19.6167 18.3977 19.48 18.327L17.854 17.5H6.134L4.619 18.289C4.45367 18.3797 4.279 18.444 4.095 18.482C3.911 18.52 3.72234 18.5397 3.529 18.539Z" fill="black"/>
</svg>
