<svg width="24" height="24" viewBox="0 0 24 24" fill="none" xmlns="http://www.w3.org/2000/svg">
<g clip-path="url(#clip0_5_83)">
<path d="M2.69486 2.23781L19.965 19.508C20.2927 19.8357 20.4768 20.2801 20.4768 20.7436C20.4768 21.207 20.2927 21.6515 19.965 21.9792C19.6372 22.3068 19.1928 22.4908 18.7294 22.4908C18.266 22.4908 17.8215 22.3068 17.4938 21.9792L13.275 17.6878C12.9989 17.4075 12.8441 17.0299 12.8438 16.6364V16.3772C12.8438 16.1785 12.8044 15.9818 12.7278 15.7985C12.6512 15.6152 12.5389 15.4489 12.3975 15.3094L11.8528 14.8064C11.6679 14.6358 11.4431 14.5144 11.199 14.4535C10.9549 14.3925 10.6994 14.394 10.456 14.4577C10.0721 14.5578 9.66878 14.5559 9.28593 14.452C8.90308 14.3482 8.55405 14.146 8.27346 13.8656L4.26892 9.86062C1.8933 7.485 1.01908 3.89766 2.69486 2.23781Z" stroke="black" stroke-width="1.3" stroke-linejoin="round"/>
<path d="M18.75 1.5L15.1289 5.12109C14.8503 5.39968 14.6293 5.73043 14.4784 6.09445C14.3276 6.45847 14.25 6.84863 14.25 7.24266V7.93922C14.25 8.03777 14.2306 8.13536 14.1929 8.22641C14.1552 8.31746 14.0999 8.40018 14.0302 8.46984L13.5 9M15 10.5L15.5302 9.96984C15.5998 9.90013 15.6826 9.84484 15.7736 9.80711C15.8647 9.76939 15.9623 9.74998 16.0608 9.75H16.7574C17.1514 9.75 17.5416 9.67238 17.9056 9.52158C18.2696 9.37078 18.6003 9.14974 18.8789 8.87109L22.5 5.25M20.625 3.375L16.875 7.125M9.37503 17.25L4.70065 21.9506C4.34904 22.3021 3.87221 22.4996 3.37503 22.4996C2.87784 22.4996 2.40102 22.3021 2.0494 21.9506C1.69789 21.599 1.50043 21.1222 1.50043 20.625C1.50043 20.1278 1.69789 19.651 2.0494 19.2994L6.00003 15.375" stroke="black" stroke-width="1.3" stroke-linecap="round" stroke-linejoin="round"/>
</g>
<defs>
<clipPath id="clip0_5_83">
<rect width="24" height="24" fill="white"/>
</clipPath>
</defs>
</svg>
